<svg width="24" height="24" viewBox="0 0 24 24" fill="none" xmlns="http://www.w3.org/2000/svg">
<path d="M12 2C17.514 2 22 6.486 22 12C22 17.514 17.514 22 12 22C6.486 22 2 17.514 2 12C2 6.486 6.486 2 12 2V2ZM12 0C5.373 0 0 5.373 0 12C0 18.627 5.373 24 12 24C18.627 24 24 18.627 24 12C24 5.373 18.627 0 12 0V0ZM12 12.55L6.008 7.98H17.991L12 12.55ZM12 13.838L6 9.209V15.98H18V9.209L12 13.838V13.838Z" fill="url(#paint0_linear_1_5)"/>
<defs>
<linearGradient id="paint0_linear_1_5" x1="-1.14811e-07" y1="9.74016" x2="24.0126" y2="12.1798" gradientUnits="userSpaceOnUse">
<stop stop-color="#003049"/>
<stop offset="1" stop-color="#003049" stop-opacity="0.6"/>
</linearGradient>
</defs>
</svg>
